<svg xmlns="http://www.w3.org/2000/svg" viewBox="0 0 114.07 114.07"><defs><style>.cls-1{fill:#f48fb1;}.cls-2{fill:#e91e63;}.cls-3{fill:#d81b60;}.cls-4{fill:#fff;}</style></defs><title>Andis_1</title><g id="Layer_2" data-name="Layer 2"><g id="Layer_1-2" data-name="Layer 1"><path class="cls-1" d="M57,114.07A57.05,57.05,0,0,1,34.83,4.48a57,57,0,0,1,44.41,105.1A56.68,56.68,0,0,1,57,114.07Z"/><path class="cls-2" d="M77.69,62.14l-.29.61a56,56,0,0,0,7.94,5.62,81.44,81.44,0,0,0,8.23,3.74,2,2,0,0,0,.7.13,2,2,0,0,0,2-2,4.36,4.36,0,0,1,.62-2.4,8.92,8.92,0,0,0,0-8.4,5,5,0,0,1,0-4.8,8.9,8.9,0,0,0,0-8.39,4.46,4.46,0,0,1-.62-2.41,2,2,0,0,0-.13-.7A2,2,0,0,0,93.56,42a82.55,82.55,0,0,0-8.23,3.74,13.87,13.87,0,0,0-3.47,2.91c-1,1.11-1.9,2.19-2.62,2.82A17.64,17.64,0,0,1,77.69,62.14Z"/><path class="cls-2" d="M35.84,62.14l.29.61a56,56,0,0,1-7.94,5.62A81.44,81.44,0,0,1,20,72.11a2,2,0,0,1-.7.13,2,2,0,0,1-2-2,4.36,4.36,0,0,0-.62-2.4,8.92,8.92,0,0,1,0-8.4,5,5,0,0,0,0-4.8,8.9,8.9,0,0,1,0-8.39,4.46,4.46,0,0,0,.62-2.41,2,2,0,0,1,.13-.7A2,2,0,0,1,20,42a82.55,82.55,0,0,1,8.23,3.74,13.87,13.87,0,0,1,3.47,2.91c1,1.11,1.9,2.19,2.62,2.82A17.64,17.64,0,0,0,35.84,62.14Z"/><circle class="cls-3" cx="56.76" cy="57.03" r="24.55"/><ellipse class="cls-4" cx="56.76" cy="57.03" rx="9.14" ry="5.28"/></g></g></svg>