<svg xmlns="http://www.w3.org/2000/svg" viewBox="0 0 114.07 114.07"><defs><style>.cls-1{fill:#f57f17;}.cls-2{fill:#1b1464;}.cls-3{fill:#fdd835;}</style></defs><title>Arpin</title><g id="Layer_2" data-name="Layer 2"><g id="Layer_1-2" data-name="Layer 1"><path id="Path_172" data-name="Path 172" class="cls-1" d="M57,114.07A57.05,57.05,0,0,1,34.83,4.48a57,57,0,0,1,44.41,105.1A56.68,56.68,0,0,1,57,114.07Z"/><rect class="cls-2" x="24.53" y="50.57" width="64.14" height="12.92"/><path class="cls-3" d="M92.66,63.51l2.05,2.05h5.7l-2.58-2.84,2.58-2.84L97.83,57l2.58-2.84-2.58-2.84,2.58-2.84h-5.7l-2.05,2.05v0h-4V63.49h4Z"/><path class="cls-3" d="M21.41,50.57v0l-2.05-2.05h-5.7l2.58,2.84-2.58,2.84L16.24,57l-2.58,2.84,2.58,2.84-2.58,2.84h5.7l2.05-2.05v0h3.12V50.57Z"/></g></g></svg>