<svg xmlns="http://www.w3.org/2000/svg" viewBox="0 0 114.07 114.07"><defs><style>.cls-1{fill:#1a237e;}.cls-2{fill:#f50057;}.cls-3{fill:#d81b60;}.cls-4{fill:#ffc107;}</style></defs><title>Balvi</title><g id="Layer_2" data-name="Layer 2"><g id="Layer_1-2" data-name="Layer 1"><path id="Path_172" data-name="Path 172" class="cls-1" d="M57,114.07A57.05,57.05,0,0,1,34.83,4.48a57,57,0,0,1,44.41,105.1A56.68,56.68,0,0,1,57,114.07Z"/><path class="cls-2" d="M27.65,51.09l1-1a21.5,21.5,0,0,0-3.26-2.66c-.4-.17-.82-.32-1.22-.49l-.29.29Z"/><path class="cls-2" d="M85.46,50.13l1,1,3.81-3.81L89.94,47c-.4.17-.82.31-1.22.49A21.5,21.5,0,0,0,85.46,50.13Z"/><rect class="cls-3" x="88.62" y="49.82" width="5.39" height="4.7" transform="translate(-10.15 79.85) rotate(-45)"/><rect class="cls-3" x="88.97" y="59.27" width="4.7" height="5.39" transform="translate(-17.07 82.72) rotate(-45)"/><path class="cls-2" d="M86.42,63.05l-1,1a22.21,22.21,0,0,0,3.27,2.57c.42.18.85.33,1.28.51l.24-.24Z"/><path class="cls-2" d="M12.27,62.6a6,6,0,0,0,1.09,3.55,3.2,3.2,0,0,1,.64,2,1.63,1.63,0,0,0,.9,1.39,2.42,2.42,0,0,0,1.18.3,2.48,2.48,0,0,0,.74-.11c.76-.24,1.5-.51,2.25-.77l2.12-2.12-3.32-3.32-3,3a3.46,3.46,0,0,0-.23-.37,6.34,6.34,0,0,1-.7-1.37l2.61-2.61-2.36-2.36a6.51,6.51,0,0,1,.44-.76,3.38,3.38,0,0,0,.49-1l2.75,2.75,3.81-3.81-3.81-3.81L15.11,56a3.35,3.35,0,0,0-.49-1,6.52,6.52,0,0,1-.44-.76l2.35-2.35-2.6-2.6a6.34,6.34,0,0,1,.7-1.37,3.5,3.5,0,0,0,.23-.37l3,3,3.32-3.32L19,45c-.72-.25-1.42-.51-2.15-.74a2.48,2.48,0,0,0-.73-.11,2.41,2.41,0,0,0-1.18.3,1.62,1.62,0,0,0-.9,1.39,3.19,3.19,0,0,1-.64,2,6.34,6.34,0,0,0,0,7.09,3.51,3.51,0,0,1,0,4A6,6,0,0,0,12.27,62.6Z"/><path class="cls-4" d="M85.09,61.72l-.88-.88a.85.85,0,0,1-.12-1,5.92,5.92,0,0,0,.5-1.26l1.25,1.25a.83.83,0,0,0,1.17,0l2.15-2.15a.83.83,0,0,0,0-1.17L87,54.33a.83.83,0,0,0-1.17,0l-1.25,1.25a5.93,5.93,0,0,0-.5-1.26.85.85,0,0,1,.12-1l.88-.88-1-1c-.81.77-1.6,1.53-2.24,2.16a.82.82,0,0,1-1.35-.32A11.2,11.2,0,0,0,70,45.83H44.11a11.2,11.2,0,0,0-10.54,7.43.82.82,0,0,1-1.35.32c-.64-.62-1.42-1.39-2.24-2.16l-1,1,.83.83a.85.85,0,0,1,.11,1l-.06.12a.83.83,0,0,1-1.33.23l-.3-.3a.83.83,0,0,0-1.17,0l-2.15,2.15a.83.83,0,0,0,0,1.17l2.15,2.15a.83.83,0,0,0,1.17,0l.3-.3a.83.83,0,0,1,1.33.23l.06.12a.85.85,0,0,1-.11,1l-.83.83,1,1c.83-.76,1.63-1.51,2.28-2.11a.82.82,0,0,1,1.33.31,11.19,11.19,0,0,0,10.48,7.27H70A11.19,11.19,0,0,0,80.44,61a.82.82,0,0,1,1.33-.31c.64.6,1.44,1.35,2.28,2.11Z"/><path class="cls-2" d="M23.84,66.87l.24.24c.42-.17.86-.33,1.28-.51A22.21,22.21,0,0,0,28.62,64l-1-1Z"/><path class="cls-2" d="M100.08,57a3.19,3.19,0,0,1,.64-2,6.34,6.34,0,0,0,0-7.09,3.19,3.19,0,0,1-.64-2,1.62,1.62,0,0,0-.9-1.39A2.41,2.41,0,0,0,98,44.2a2.48,2.48,0,0,0-.73.11c-.72.23-1.43.49-2.15.74l-2.23,2.23,3.32,3.32,3-3a3.46,3.46,0,0,0,.23.37,6.34,6.34,0,0,1,.7,1.37l-2.61,2.61,2.36,2.36a6.51,6.51,0,0,1-.44.76A3.38,3.38,0,0,0,99,56l-2.75-2.75L92.4,57.07l3.81,3.81L99,58.14a3.35,3.35,0,0,0,.49,1,6.52,6.52,0,0,1,.44.76l-2.35,2.35,2.6,2.6a6.34,6.34,0,0,1-.7,1.37,3.5,3.5,0,0,0-.23.37l-3-3-3.32,3.32L95,69c.75.26,1.49.53,2.25.77a2.48,2.48,0,0,0,.74.11,2.42,2.42,0,0,0,1.18-.3,1.63,1.63,0,0,0,.9-1.39,3.2,3.2,0,0,1,.64-2,6.35,6.35,0,0,0,0-7.09A3.17,3.17,0,0,1,100.08,57Z"/><rect class="cls-3" x="20.06" y="59.62" width="5.39" height="4.7" transform="translate(-37.15 34.24) rotate(-45)"/><rect class="cls-3" x="20.4" y="49.48" width="4.7" height="5.39" transform="translate(-30.23 31.37) rotate(-45)"/></g></g></svg>