<svg xmlns="http://www.w3.org/2000/svg" viewBox="0 0 114.07 114.07"><defs><style>.cls-1{fill:#fb8c00;}.cls-2{fill:#ffd600;}.cls-3{fill:#1a237e;}</style></defs><title>Barbara</title><g id="Layer_2" data-name="Layer 2"><g id="Layer_1-2" data-name="Layer 1"><path id="Path_172" data-name="Path 172" class="cls-1" d="M57,114.07A57.05,57.05,0,0,1,34.83,4.48a57,57,0,0,1,44.41,105.1A56.68,56.68,0,0,1,57,114.07Z"/><path class="cls-2" d="M74.87,43.31v0H39.2v0L34.88,39V75.08l4.32-4.32v0H74.87v0l4.32,4.32V39Z"/><path class="cls-3" d="M34.86,39H22.78l5.48,6-5.48,6,5.48,6-5.48,6,5.48,6-5.48,6H34.86l0,0V39Z"/><path class="cls-3" d="M81.44,75.1h9.86l-5.48-6,5.48-6-5.48-6,5.48-6-5.48-6,5.48-6H79.21l0,0V75.08l0,0Z"/></g></g></svg>