<svg xmlns="http://www.w3.org/2000/svg" viewBox="0 0 114.07 114.07"><defs><style>.cls-1{fill:#fb8c00;}.cls-2{fill:#b71c1c;}.cls-3{fill:#ed1c24;}.cls-4{fill:#fff;}</style></defs><title>Bykit</title><g id="Layer_2" data-name="Layer 2"><g id="Layer_1-2" data-name="Layer 1"><path id="Path_172" data-name="Path 172" class="cls-1" d="M57,114.07A57.05,57.05,0,0,1,34.83,4.48a57,57,0,0,1,44.41,105.1A56.68,56.68,0,0,1,57,114.07Z"/><path class="cls-2" d="M92.54,47.15,97,42.2H87.12l-3.57,3.57v0H67.76C66,53.13,56.18,60.18,43.4,62.68c-9.72,1.9-18.82.7-24.57-2.67L17,62l4.49,4.94L17,71.87H27l3.57-3.57v0h53v0l3.57,3.57H97l-4.49-4.94L97,62,92.54,57,97,52.09Z"/><path class="cls-3" d="M43.4,62.68C56.18,60.18,66,53.13,67.76,45.8H30.52v0L27,42.2H17l4.49,4.94L17,52.09,21.53,57l-2.7,3C24.57,63.38,33.67,64.58,43.4,62.68Z"/><circle class="cls-4" cx="76.95" cy="57.03" r="3.92"/></g></g></svg>