<svg xmlns="http://www.w3.org/2000/svg" viewBox="0 0 114.07 114.07"><defs><style>.cls-1{fill:#d81b60;}.cls-2{fill:#fff;}.cls-3{fill:#ffd600;}</style></defs><title>Cake</title><g id="Layer_2" data-name="Layer 2"><g id="Layer_1-2" data-name="Layer 1"><path id="Path_172" data-name="Path 172" class="cls-1" d="M57,114.07A57.05,57.05,0,0,1,34.83,4.48a57,57,0,0,1,44.41,105.1A56.68,56.68,0,0,1,57,114.07Z"/><path class="cls-2" d="M65.9,59.72c11.77,4.25,23.23-.19,30-4l-3.34-3.68L97,47.15,92.54,42.2,97,37.26H87.12l-3.57,3.57v0h-53v0L27,37.26H17l4.49,4.94-4.44,4.88C30.24,45.33,50.25,54.08,65.9,59.72Z"/><path class="cls-2" d="M41.9,63.85a49.23,49.23,0,0,0-23.38,1.43L17,66.92l4.49,4.94L17,76.81H27l3.57-3.57v0h53v0l3.57,3.57H97l-4.49-4.94L97,66.92,93.29,62.8a87.76,87.76,0,0,1-8.14,4.42C73.15,73,62,67.1,41.9,63.85Z"/><path class="cls-3" d="M97,57l-1.15-1.26c-6.75,3.76-18.21,8.2-30,4-15.65-5.64-35.66-14.4-48.81-12.64l-.06.06,4.49,4.94L17,57,21.53,62l-3,3.3A49.23,49.23,0,0,1,41.9,63.85C62,67.1,73.15,73,85.15,67.22a87.76,87.76,0,0,0,8.14-4.42L92.54,62Z"/></g></g></svg>