<svg xmlns="http://www.w3.org/2000/svg" viewBox="0 0 114.07 114.07"><defs><style>.cls-1{fill:#f48fb1;}.cls-2{fill:#c2185b;}.cls-3{fill:#e91e63;}</style></defs><title>Carolin Fruit</title><g id="Layer_2" data-name="Layer 2"><g id="Layer_1-2" data-name="Layer 1"><path id="Path_172" data-name="Path 172" class="cls-1" d="M57,114.07A57.05,57.05,0,0,1,34.83,4.48a57,57,0,0,1,44.41,105.1A56.68,56.68,0,0,1,57,114.07Z"/><path class="cls-2" d="M70.07,73.56h0a10.43,10.43,0,0,1-3.94-.81l-1.29-.53h0c-3.36-1.38-5-2.07-6.77-2.07s-3.35.61-6.74,1.83h0l-1.64.59a14.42,14.42,0,0,1-4.91.9,13.08,13.08,0,0,1-3.93-.61,19.79,19.79,0,0,1-3.41-1.46A28.08,28.08,0,0,1,36,68.72a40.82,40.82,0,0,1-2.43-6.42,19.12,19.12,0,0,0-1.48,1.53h0A29.4,29.4,0,0,1,29.91,66a19.49,19.49,0,0,0-2-5.17h0c-.23-.47-.46-.91-.66-1.35a5,5,0,0,1-.52-2.85,7.74,7.74,0,0,1,1.27-3,14.49,14.49,0,0,0,2.26-5.29c.63.61,1.21,1.27,1.72,1.86h0a18.12,18.12,0,0,0,1.5,1.62A42.33,42.33,0,0,1,36,45.4c.19-.4.38-.78.57-1.14a10.12,10.12,0,0,1,5.64-1.8,10.43,10.43,0,0,1,3.94.81l1.3.53c3.36,1.38,5,2.07,6.77,2.07s3.35-.61,6.74-1.83l1.65-.59a16,16,0,0,1,2.56-.69,13.4,13.4,0,0,1,2.35-.21,13.75,13.75,0,0,1,5.23,1.08,34.14,34.14,0,0,1,4.39,2.27h0c.64.37,1.24.72,1.85,1l.14.29a32.53,32.53,0,0,1,1.74,4.64,17.93,17.93,0,0,0,1.52-1.6h0a16.06,16.06,0,0,1,4.1-3.68l1.69-.86A5.32,5.32,0,0,1,87.87,51l-.45.78-.05.09-.05.09h0c-2.83,4.91-2.83,4.91-.24,10h0l0,.05h0l.58,1.16a7.43,7.43,0,0,1,.73,5.29c-.67-.33-1.34-.66-2-1a16.42,16.42,0,0,1-4.12-3.64h0a18.78,18.78,0,0,0-1.49-1.54,40.42,40.42,0,0,1-2.43,6.42c-.26.53-.53,1.05-.8,1.53a13.23,13.23,0,0,1-3.18,2.25,9.73,9.73,0,0,1-4.34,1Z"/><path class="cls-3" d="M57.17,81.62h0a24.65,24.65,0,0,1-9.25-1.8,24.48,24.48,0,0,1-4.28-2.25A24.76,24.76,0,0,1,40.34,75a11.16,11.16,0,0,0,3.37.66H44a30,30,0,0,0,8.77-2.06c.64-.23,1.24-.44,1.83-.63a9.73,9.73,0,0,1,3-.54,8.62,8.62,0,0,1,2.27.32,17.07,17.07,0,0,1,2.55.95,21.51,21.51,0,0,0,8.58,2.26,9.55,9.55,0,0,0,2.14-.23,24.54,24.54,0,0,1-16,5.95Z"/><path class="cls-3" d="M19.66,71.06a1.85,1.85,0,0,1-1.85-1.85A4.07,4.07,0,0,0,17.24,67h0a8.26,8.26,0,0,1,0-7.75,4.59,4.59,0,0,0,0-4.43h0a8.28,8.28,0,0,1,0-7.76,4.06,4.06,0,0,0,.57-2.21,1.85,1.85,0,0,1,2.5-1.73,75.11,75.11,0,0,1,7.35,3.33A5.38,5.38,0,0,1,27.09,51l-.37.65-.07.13h0l-.05.09-.06.1c-2.83,4.91-2.83,4.91-.24,10h0l.6,1.18a9,9,0,0,1,.8,2.29,6.91,6.91,0,0,1,.1,2.06,74.87,74.87,0,0,1-7.5,3.4A1.83,1.83,0,0,1,19.66,71.06Z"/><path class="cls-3" d="M94.18,71l-.15,0c-1.2-.47-2.4-1-3.58-1.5a4.82,4.82,0,0,0,.39-2.07,17.18,17.18,0,0,0-2.15-6.49h0c-.24-.47-.46-.92-.66-1.35a5,5,0,0,1-.52-2.85,7.74,7.74,0,0,1,1.27-3,17.09,17.09,0,0,0,2-4.2,5.63,5.63,0,0,0-.44-4.84c1.2-.54,2.43-1.06,3.65-1.53a1.85,1.85,0,0,1,2.5,1.73,4.06,4.06,0,0,0,.57,2.21h0a8.26,8.26,0,0,1,0,7.75,4.59,4.59,0,0,0,0,4.43,8.25,8.25,0,0,1,0,7.76,4.06,4.06,0,0,0-.57,2.21c0,.31-.47.76-.92,1.09a3,3,0,0,1-1.44.66Z"/><path class="cls-3" d="M54.57,43.62h0a8.63,8.63,0,0,1-2.27-.32,17.06,17.06,0,0,1-2.55-.95,21.5,21.5,0,0,0-8.58-2.26,9.66,9.66,0,0,0-2,.2c.2-.23.41-.46.61-.66a24.55,24.55,0,0,1,29.52-4,1.86,1.86,0,0,1,.31.18,18.78,18.78,0,0,1,3.76,3,26.69,26.69,0,0,1,3.18,3.93l.32.49c-2.49-1.3-6-2.85-8.36-2.85h-.32a30,30,0,0,0-8.77,2.06h0c-.64.23-1.24.44-1.83.63a9.73,9.73,0,0,1-3,.54Z"/></g></g></svg>