<svg xmlns="http://www.w3.org/2000/svg" viewBox="0 0 114.07 114.07"><defs><style>.cls-1{fill:#c5e1a5;}.cls-2{fill:#1b5e20;}.cls-3{fill:#00c853;}</style></defs><title>Dinosaur</title><g id="Layer_2" data-name="Layer 2"><g id="Layer_1-2" data-name="Layer 1"><path id="Path_172" data-name="Path 172" class="cls-1" d="M57,114.07A57.05,57.05,0,0,1,34.83,4.48a57,57,0,0,1,44.41,105.1A56.68,56.68,0,0,1,57,114.07Z"/><path class="cls-2" d="M49.55,19.43a27.65,27.65,0,0,1-1.15-6.09c.78.12,4.53,3.11,6.51,4.91h-.28A12.72,12.72,0,0,0,49.55,19.43Z"/><path class="cls-2" d="M46.51,24.16a23.55,23.55,0,0,1-4.63-4.49,25,25,0,0,1,6.89.67A6.83,6.83,0,0,0,46.51,24.16Z"/><path class="cls-2" d="M47.21,32.35a33.42,33.42,0,0,1-7.72-3.14,21.48,21.48,0,0,1,7.42-1.72c0,.09,0,.17,0,.26C47,28.48,47.06,30.12,47.21,32.35Z"/><path class="cls-2" d="M39.63,37.09A24.87,24.87,0,0,1,47,35c.12,1.68.24,3.56.38,5.55A30,30,0,0,1,39.63,37.09Z"/><path class="cls-2" d="M40.45,46.13a17,17,0,0,1,6.72-2.85c.13,2,.27,4.09.4,6.18A25.74,25.74,0,0,1,40.45,46.13Z"/><path class="cls-2" d="M41.39,54.74a14.68,14.68,0,0,1,6-1.73c.11,1.93.22,3.83.31,5.64A19,19,0,0,1,41.39,54.74Z"/><path class="cls-2" d="M46.56,70c-2.05-1.47-5.19-3.92-6.11-5.52a24.35,24.35,0,0,1,6-1.19C46.55,66.07,46.6,68.41,46.56,70Z"/><path class="cls-2" d="M39,70.3a23.21,23.21,0,0,1,5.74,3.25A48,48,0,0,1,40.1,77,24.1,24.1,0,0,1,39,70.3Z"/><path class="cls-2" d="M31.64,75.16A22.84,22.84,0,0,1,37,79c-1.59,1-3.18,1.83-4.69,2.63A33.91,33.91,0,0,1,31.64,75.16Z"/><path class="cls-2" d="M24.38,79.64c.7.07,3.41,2,4.73,3.61-1.64.8-3.06,1.45-4.11,1.91A27.49,27.49,0,0,1,24.38,79.64Z"/><path class="cls-3" d="M87.44,34.14A16.57,16.57,0,0,0,70.87,17.58H53.26a6.82,6.82,0,0,0-6.82,6.82V61.21A20.91,20.91,0,0,1,36.68,79l-.37.23c-3,1.78-12.53,6.09-12.53,6.09l5.64,1.27A49.24,49.24,0,0,0,40.2,87.76H48v8.06h9V87.75H61.9v8.06h9V70.56L60.81,40.69H87.44Z"/></g></g></svg>