<svg xmlns="http://www.w3.org/2000/svg" viewBox="0 0 114.07 114.07"><defs><style>.cls-1{fill:#eee;}.cls-2{fill:#212121;}.cls-3{fill:#ff8f00;}</style></defs><title>Eruca</title><g id="Layer_2" data-name="Layer 2"><g id="Layer_1-2" data-name="Layer 1"><path id="Path_172" data-name="Path 172" class="cls-1" d="M57,114.07A57.05,57.05,0,0,1,34.83,4.48a57,57,0,0,1,44.41,105.1A56.68,56.68,0,0,1,57,114.07Z"/><path class="cls-2" d="M24.35,46.2l5.51,6.06-5.74,6.31,5.74,6.31L24.12,71.2l5.74,6.31-5.74,6.31H36.78l4.55-4.55v0h31.4v0l4.55,4.55H89.95l-5.74-6.31,5.74-6.31-5.74-6.31,5.74-6.31-5.74-6.31,5.51-6.06Z"/><path class="cls-3" d="M89.95,46l-5.74-6.31,5.74-6.31H77.29l-4.55,4.55v0H41.34v0l-4.55-4.55H24.12l5.74,6.31L24.12,46l.22.25H89.72Z"/></g></g></svg>