<svg xmlns="http://www.w3.org/2000/svg" viewBox="0 0 114.07 114.07"><defs><style>.cls-1{fill:#ffd600;}.cls-2{fill:#fff;}.cls-3{fill:#8c6239;}</style></defs><title>Eterno</title><g id="Layer_2" data-name="Layer 2"><g id="Layer_1-2" data-name="Layer 1"><path id="Path_172" data-name="Path 172" class="cls-1" d="M57,114.07A57.05,57.05,0,0,1,34.83,4.48a57,57,0,0,1,44.41,105.1A56.68,56.68,0,0,1,57,114.07Z"/><path class="cls-2" d="M39.81,59.12c13.79,6.4,19.1,11,27.76,8.39,6.68-2,15.82-12.68,23.5-15.16l-1.69-1.86,6-6.55-6-6.55,6-6.55H82.2l-4.73,4.73v0H36.59v0l-4.73-4.73H18.73l6,6.55-6,6.55,6,6.55-6,6.55,3.69,4.06C27.72,58.17,34,56.41,39.81,59.12Z"/><path class="cls-3" d="M18.73,70.13l6,6.55-6,6.55H31.87l4.73-4.73v0H77.48v0l4.73,4.73H95.34l-6-6.55,6-6.55-6-6.55,6-6.55-4.26-4.69c-7.68,2.49-16.82,13.12-23.5,15.16-8.66,2.65-14-2-27.76-8.39-5.83-2.71-12.1-.95-17.39,2l2.26,2.49Z"/></g></g></svg>