<svg xmlns="http://www.w3.org/2000/svg" viewBox="0 0 114.07 114.07"><defs><style>.cls-1{fill:#d50000;}.cls-2{fill:#fb8c00;}.cls-3{fill:#42210b;}</style></defs><title>Gold Shoniz</title><g id="Layer_2" data-name="Layer 2"><g id="Layer_1-2" data-name="Layer 1"><path id="Path_172" data-name="Path 172" class="cls-1" d="M57,114.07A57.05,57.05,0,0,1,34.83,4.48a57,57,0,0,1,44.41,105.1A56.68,56.68,0,0,1,57,114.07Z"/><path class="cls-2" d="M57,32.47A25.59,25.59,0,0,0,31.77,62.11H82.3A25.59,25.59,0,0,0,57,32.47Z"/><polygon class="cls-3" points="37.7 76.38 76.57 76.38 86.7 52.26 26.63 52.25 37.7 76.38"/><path d="M42.55,79.35H71.79c5.38,0,8.24-3.48,9.75-7.7l8.53-21s0,0,0,0H81.29a0,0,0,0,0,0,0l-5,21.43c-.44,1.88-2.72,3.12-5.1,2.78s-3.95-2.15-3.51-4l4.71-20.16s0,0,0,0H61.54a0,0,0,0,0,0,0V71.2a4,4,0,0,1-4,3.62c-2.59.18-4.77-1.43-4.77-3.44V50.65a0,0,0,0,0,0,0H41.93s0,0,0,0l4.71,20.16c.44,1.88-1.13,3.68-3.51,4s-4.66-.89-5.1-2.78L33,50.64a0,0,0,0,0,0,0h-8.7s-.05,0,0,0l8.6,21C34.42,76,37.17,79.35,42.55,79.35Z"/></g></g></svg>