<svg xmlns="http://www.w3.org/2000/svg" viewBox="0 0 114.07 114.07"><defs><style>.cls-1{fill:#212121;}.cls-2{fill:#d50000;}</style></defs><title>Heart</title><g id="Layer_2" data-name="Layer 2"><g id="Layer_1-2" data-name="Layer 1"><path id="Path_172" data-name="Path 172" class="cls-1" d="M57,114.07A57.05,57.05,0,0,1,34.83,4.48a57,57,0,0,1,44.41,105.1A56.68,56.68,0,0,1,57,114.07Z"/><path class="cls-2" d="M83.17,41.84c-2.76-7-7.73-7.72-12.61-7.57-4.15.13-8.2,2.81-10.8,4.83a4.33,4.33,0,0,1-5.33,0c-2.6-2-6.64-4.7-10.8-4.83-4.88-.15-9.85.6-12.61,7.57-1.88,4.76-.52,12.42,2.73,18.42,5,9.22,15.22,20,20.31,25.06a4.31,4.31,0,0,0,6.06,0c5.1-5,15.33-15.84,20.31-25.06C83.69,54.26,85.05,46.6,83.17,41.84Z"/></g></g></svg>