<svg xmlns="http://www.w3.org/2000/svg" viewBox="0 0 114.07 114.07"><defs><style>.cls-1{fill:#f7931e;}.cls-2{fill:#fdd835;}.cls-3{fill:#d50000;}.cls-4{fill:#fff;}</style></defs><title>Hoody</title><g id="Layer_2" data-name="Layer 2"><g id="Layer_1-2" data-name="Layer 1"><path id="Path_172" data-name="Path 172" class="cls-1" d="M57,114.07A57.05,57.05,0,0,1,34.83,4.48a57,57,0,0,1,44.41,105.1A56.68,56.68,0,0,1,57,114.07Z"/><polygon class="cls-2" points="90.94 75.78 85.68 70 90.94 64.21 85.68 58.42 90.94 52.63 85.68 46.84 90.94 41.05 81.47 41.05 79.77 41.05 79.77 75.78 81.47 75.78 90.94 75.78"/><path class="cls-3" d="M79.77,41.05h-.44l-4.18,4.18v0H38.83v0l-4.18-4.18h0V66.87H79.77Z"/><path class="cls-4" d="M34.65,75.79l4.18-4.18v0H75.15v0l4.18,4.18h.44V66.87H34.61v8.91Z"/><polygon class="cls-2" points="32.52 41.05 23.04 41.05 28.31 46.84 23.04 52.63 28.31 58.42 23.04 64.21 28.31 70 23.04 75.78 32.52 75.78 34.6 75.78 34.6 41.05 32.52 41.05"/></g></g></svg>