<svg xmlns="http://www.w3.org/2000/svg" viewBox="0 0 114.07 114.07"><defs><style>.cls-1{fill:#d4145a;}.cls-2{fill:#fff;}.cls-3{fill:#db82b5;}</style></defs><title>Kish Powder</title><g id="Layer_2" data-name="Layer 2"><g id="Layer_1-2" data-name="Layer 1"><path class="cls-1" d="M57,114.07A57.05,57.05,0,0,1,34.83,4.48a57,57,0,0,1,44.41,105.1A56.68,56.68,0,0,1,57,114.07Z"/><path class="cls-2" d="M92.89,59.35c-2.22-6-.68-10.29,1-12.81q-3.87,1.14-7.56,2.6c-2.41,1-4.27,3.11-5.62,4A22.54,22.54,0,0,0,69.48,41a2.06,2.06,0,0,0-.32-.14c-9.61-4.13-21.69-2.89-29.51,3-3,2.26-5.11,6.23-6.25,9.22-1.35-.88-3.22-3-5.62-4s-5-1.85-7.59-2.61a2.38,2.38,0,0,0-.76-.09c-1.21,1.62-2.33,4.89,0,11.06a14.51,14.51,0,0,1,.38,10.08,2.38,2.38,0,0,0,.42-.06q3.89-1.14,7.59-2.61c2.4-1,4.27-3,5.62-3.91,1.13,3,3.25,6.89,6.25,9.15,9.6,7.25,25.16,7.25,34.75,0,3-2.26,5.13-6.16,6.26-9.15,1.35.88,3.2,3,5.61,3.92s5,1.85,7.59,2.61a.69.69,0,0,0,.18,0C94.4,65.66,94.25,63,92.89,59.35Z"/><ellipse class="cls-3" cx="57.03" cy="57.51" rx="21.16" ry="14.75"/></g></g></svg>