<svg xmlns="http://www.w3.org/2000/svg" viewBox="0 0 114.07 114.07"><defs><style>.cls-1{fill:#f8bbd0;}.cls-2{fill:#f06292;}.cls-3{fill:#d50000;}.cls-4{fill:#fff;}</style></defs><title>Kish Fruit 1 sar</title><g id="Layer_2" data-name="Layer 2"><g id="Layer_1-2" data-name="Layer 1"><path id="Path_172" data-name="Path 172" class="cls-1" d="M57,114.07A57.05,57.05,0,0,1,34.83,4.48a57,57,0,0,1,44.41,105.1A56.68,56.68,0,0,1,57,114.07Z"/><path class="cls-2" d="M60.53,54l-7,0-6.92,6.28a16.15,16.15,0,0,0-5.35,12V88.42a5.12,5.12,0,0,0,5.12,5.12H67.69a5.12,5.12,0,0,0,5.12-5.12V72.32a16.15,16.15,0,0,0-5.35-12Z"/><path class="cls-3" d="M60.36,54,72.57,37.46l-.08-13.88s-5.79,2.34-18.76-2.37c-6.55-2.38-12.24,2.28-12.24,2.28l.19,13.7L53.71,54Z"/><path class="cls-4" d="M53.79,31.86c13,4.71,18.76,2.37,18.76,2.37v-5s-5.79,2.34-18.76-2.37c-6.55-2.38-12.24,2.28-12.24,2.28l.07,5C42.28,33.58,47.66,29.63,53.79,31.86Z"/></g></g></svg>