<svg xmlns="http://www.w3.org/2000/svg" viewBox="0 0 114.07 114.07"><defs><style>.cls-1{fill:#388e3c;}.cls-2{fill:#c5e1a5;}.cls-3{fill:#1b5e20;}</style></defs><title>Kish 2 Sar Press</title><g id="Layer_2" data-name="Layer 2"><g id="Layer_1-2" data-name="Layer 1"><path id="Path_172" data-name="Path 172" class="cls-1" d="M57,114.07A57.05,57.05,0,0,1,34.83,4.48a57,57,0,0,1,44.41,105.1A56.68,56.68,0,0,1,57,114.07Z"/><path class="cls-2" d="M90.94,40.73l7.41-8.15H82l-5.88,5.88v0H76c-4.42-1.35-11.26-2.22-19-2.22s-14.56.87-19,2.22H38a0,0,0,0,1,0,0h0L32,32.58H15.76a0,0,0,0,0,0,0l7.36,8.1a0,0,0,0,1,0,0l-7.38,8.12a0,0,0,0,0,0,0L23.1,57a0,0,0,0,1,0,0l-7.38,8.12a0,0,0,0,0,0,0l7.38,8.12a0,0,0,0,1,0,0l-7.36,8.1a0,0,0,0,0,0,0H32l5.84-5.84C42.28,77,49.21,77.93,57,77.93S71.76,77,76.17,75.66L82,81.49H98.36l-7.41-8.15,7.41-8.15L90.94,57l7.41-8.15Z"/><polygon class="cls-3" points="31.87 34.16 17.15 34.16 18.3 35.44 31.87 35.44 31.87 34.16"/><polygon class="cls-3" points="31.87 37.59 20.26 37.59 21.41 38.86 31.87 38.86 31.87 37.59"/><polygon class="cls-3" points="31.87 41.01 22.86 41.01 21.71 42.28 31.87 42.28 31.87 41.01"/><polygon class="cls-3" points="31.87 44.43 19.75 44.43 18.6 45.7 31.87 45.7 31.87 44.43"/><path class="cls-3" d="M31.87,47.85H16.64l-.93,1a0,0,0,0,0,0,0l.2.22H31.87Z"/><polygon class="cls-3" points="31.87 51.27 17.87 51.27 19.03 52.54 31.87 52.54 31.87 51.27"/><polygon class="cls-3" points="31.87 54.69 20.98 54.69 22.14 55.96 31.87 55.96 31.87 54.69"/><polygon class="cls-3" points="31.87 58.11 22.14 58.11 20.98 59.38 31.87 59.38 31.87 58.11"/><polygon class="cls-3" points="31.87 61.53 19.03 61.53 17.87 62.8 31.87 62.8 31.87 61.53"/><path class="cls-3" d="M31.87,65H15.92l-.2.22a0,0,0,0,0,0,0l.93,1H31.87Z"/><polygon class="cls-3" points="31.87 68.37 18.6 68.37 19.75 69.64 31.87 69.64 31.87 68.37"/><polygon class="cls-3" points="31.87 71.79 21.71 71.79 22.86 73.06 31.87 73.06 31.87 71.79"/><polygon class="cls-3" points="31.87 75.21 21.41 75.21 20.26 76.48 31.87 76.48 31.87 75.21"/><polygon class="cls-3" points="31.87 78.63 18.3 78.63 17.15 79.9 31.87 79.9 31.87 78.63"/><polygon class="cls-3" points="82.2 34.16 96.92 34.16 95.77 35.44 82.2 35.44 82.2 34.16"/><polygon class="cls-3" points="82.2 37.59 93.81 37.59 92.66 38.86 82.2 38.86 82.2 37.59"/><polygon class="cls-3" points="82.2 41.01 91.2 41.01 92.36 42.28 82.2 42.28 82.2 41.01"/><polygon class="cls-3" points="82.2 44.43 94.31 44.43 95.47 45.7 82.2 45.7 82.2 44.43"/><path class="cls-3" d="M82.2,47.85H97.42l.93,1a0,0,0,0,1,0,0l-.2.22H82.2Z"/><polygon class="cls-3" points="82.2 51.27 96.19 51.27 95.04 52.54 82.2 52.54 82.2 51.27"/><polygon class="cls-3" points="82.2 54.69 93.08 54.69 91.93 55.96 82.2 55.96 82.2 54.69"/><polygon class="cls-3" points="82.2 58.11 91.93 58.11 93.08 59.38 82.2 59.38 82.2 58.11"/><polygon class="cls-3" points="82.2 61.53 95.04 61.53 96.19 62.8 82.2 62.8 82.2 61.53"/><path class="cls-3" d="M82.2,65H98.15l.2.22a0,0,0,0,1,0,0l-.93,1H82.2Z"/><polygon class="cls-3" points="82.2 68.37 95.47 68.37 94.31 69.64 82.2 69.64 82.2 68.37"/><polygon class="cls-3" points="82.2 71.79 92.36 71.79 91.2 73.06 82.2 73.06 82.2 71.79"/><polygon class="cls-3" points="82.2 75.21 92.66 75.21 93.81 76.48 82.2 76.48 82.2 75.21"/><polygon class="cls-3" points="82.2 78.63 95.77 78.63 96.92 79.9 82.2 79.9 82.2 78.63"/></g></g></svg>