<svg xmlns="http://www.w3.org/2000/svg" viewBox="0 0 114.07 114.07"><defs><style>.cls-1{fill:#f7931e;}.cls-2{fill:#ffd600;}.cls-3{fill:#388e3c;}</style></defs><title>Markiz wafer</title><g id="Layer_2" data-name="Layer 2"><g id="Layer_1-2" data-name="Layer 1"><path id="Path_172" data-name="Path 172" class="cls-1" d="M57,114.07A57.05,57.05,0,0,1,34.83,4.48a57,57,0,0,1,44.41,105.1A56.68,56.68,0,0,1,57,114.07Z"/><path class="cls-2" d="M92.5,45.14l5.4-5.94H86L81.7,43.49v0H32.37v0L28.08,39.2H16.16l5.4,5.94-5.4,5.94L21.57,57,16.16,63l5.4,5.94-5.4,5.94H28.08l4.29-4.29v0H81.7v0L86,74.87H97.91l-5.4-5.94L97.91,63,92.5,57l5.4-5.94Z"/><rect class="cls-3" x="39.2" y="52.91" width="35.67" height="8.24" rx="4.12" ry="4.12"/></g></g></svg>