<svg xmlns="http://www.w3.org/2000/svg" viewBox="0 0 114.07 114.07"><defs><style>.cls-1{fill:#8c6239;}.cls-2{fill:#3e2723;}.cls-3{fill:#ffe082;}</style></defs><title>melone</title><g id="Layer_2" data-name="Layer 2"><g id="Layer_1-2" data-name="Layer 1"><path id="Path_172" data-name="Path 172" class="cls-1" d="M57,114.07A57.05,57.05,0,0,1,34.83,4.48a57,57,0,0,1,44.41,105.1A56.68,56.68,0,0,1,57,114.07Z"/><path class="cls-2" d="M39.41,63.08,25.36,51.24A6.07,6.07,0,0,1,27.2,51h.93L42.52,63.09H39.41Z"/><polygon class="cls-3" points="45.63 63.1 31.24 50.97 68.58 51.05 82.97 63.18 45.63 63.1 45.63 63.1 45.63 63.1"/><path class="cls-2" d="M86.08,63.19,71.69,51.06H74.8l14,11.84a6,6,0,0,1-1.86.29h-.9Z"/><path class="cls-3" d="M23.46,52.24a6.08,6.08,0,0,0-1.34,1.48l.1,6.72a6,6,0,0,0,5,2.61l9.13,0Z"/><path class="cls-2" d="M22.09,53.74l-.55-.61h0a14.39,14.39,0,0,0-1.48-1.52,5.2,5.2,0,0,0-.89-.62,43.88,43.88,0,0,0-4.4-2,1.07,1.07,0,0,0-1.45,1A2.36,2.36,0,0,1,13,51.26a4.8,4.8,0,0,0,0,4.5,2.66,2.66,0,0,1,0,2.57,4.79,4.79,0,0,0,0,4.5,2.37,2.37,0,0,1,.33,1.29,1.07,1.07,0,0,0,.38.82l.08.06a1.07,1.07,0,0,0,1,.12,43.84,43.84,0,0,0,4.41-2A9.6,9.6,0,0,0,21.54,61h0c.23-.26.43-.47.61-.65l.06.08-.1-6.72Z"/><path class="cls-3" d="M90.61,61.83A6.08,6.08,0,0,0,92,60.35l-.1-6.72a6,6,0,0,0-5-2.61l-9.13,0Z"/><path class="cls-2" d="M92,60.33l.55.61h0A14.39,14.39,0,0,0,94,62.46a5.2,5.2,0,0,0,.89.62,43.88,43.88,0,0,0,4.4,2,1.07,1.07,0,0,0,1.45-1,2.36,2.36,0,0,1,.34-1.29,4.8,4.8,0,0,0,0-4.5,2.66,2.66,0,0,1,0-2.57,4.79,4.79,0,0,0,0-4.5A2.37,2.37,0,0,1,100.8,50a1.07,1.07,0,0,0-.38-.82l-.08-.06a1.07,1.07,0,0,0-1-.12,43.84,43.84,0,0,0-4.41,2,9.6,9.6,0,0,0-2.4,2.11h0c-.23.26-.43.47-.61.65l-.06-.08.1,6.72Z"/></g></g></svg>