<svg xmlns="http://www.w3.org/2000/svg" viewBox="0 0 114.07 114.07"><defs><style>.cls-1{fill:#8c6239;}.cls-2{fill:#fff;}.cls-3{fill:#a67c52;}</style></defs><title>Milk Caramel</title><g id="Layer_2" data-name="Layer 2"><g id="Layer_1-2" data-name="Layer 1"><path class="cls-1" d="M57,114.07A57.05,57.05,0,0,1,34.83,4.48a57,57,0,0,1,44.41,105.1A56.68,56.68,0,0,1,57,114.07Z"/><path id="round-candy" class="cls-2" d="M96.37,69.21A4.06,4.06,0,0,1,96.94,67a8.26,8.26,0,0,0,0-7.75,4.59,4.59,0,0,1,0-4.43,8.27,8.27,0,0,0,0-7.75,4.07,4.07,0,0,1-.57-2.21,1.85,1.85,0,0,0-2.5-1.73,74.7,74.7,0,0,0-7.59,3.46c-2.41,1.28-4.27,4.11-5.62,5.29-1.76-6.1-5.83-12.86-11.19-16a1.84,1.84,0,0,0-.32-.18,24.56,24.56,0,0,0-29.51,4c-3,3-5.11,8.25-6.25,12.21-1.35-1.17-3.22-4-5.62-5.28a74.67,74.67,0,0,0-7.59-3.45,1.84,1.84,0,0,0-2.5,1.73,4.07,4.07,0,0,1-.57,2.21,8.26,8.26,0,0,0,0,7.75,4.59,4.59,0,0,1,0,4.43,8.26,8.26,0,0,0,0,7.75,4.07,4.07,0,0,1,.57,2.21,1.84,1.84,0,0,0,2.5,1.73,74.69,74.69,0,0,0,7.59-3.45c2.4-1.27,4.27-4,5.62-5.18,1.13,4,3.25,9.12,6.25,12.11a24.58,24.58,0,0,0,34.75,0c3-3,5.13-8.15,6.26-12.11,1.35,1.17,3.2,3.91,5.61,5.18a74.7,74.7,0,0,0,7.59,3.45C94.44,71.14,96.37,69.81,96.37,69.21Z"/><circle class="cls-3" cx="57.03" cy="57.51" r="21.16"/><circle class="cls-1" cx="57.03" cy="57.51" r="7.65"/></g></g></svg>