<svg xmlns="http://www.w3.org/2000/svg" viewBox="0 0 114.07 114.07"><defs><style>.cls-1{fill:#fdd835;}.cls-2{fill:#fafafa;}.cls-3{fill:#d50000;}</style></defs><title>Mix</title><g id="Layer_2" data-name="Layer 2"><g id="Layer_1-2" data-name="Layer 1"><path id="Path_172" data-name="Path 172" class="cls-1" d="M57,114.07A57.05,57.05,0,0,1,34.83,4.48a57,57,0,0,1,44.41,105.1A56.68,56.68,0,0,1,57,114.07Z"/><rect class="cls-2" x="32.43" y="23.41" width="49.21" height="69.05" transform="translate(114.97 0.9) rotate(90)"/><path class="cls-3" d="M91.56,44.68H59.05c.61-2.41,1.52-5.07,1.52-5.07A2.13,2.13,0,0,0,57.13,38l-8.46,6.73h-.24a.88.88,0,0,0-.79-.5H43.29a.88.88,0,0,0-.79.5h-.24L33.8,38a2.13,2.13,0,0,0-3.45,1.66s.91,2.66,1.52,5.07H22.51v5.07h9.63C31.58,52.37,30.35,56,30.35,56a2.13,2.13,0,0,0,3.45,1.66l8.65-6.88a.88.88,0,0,0,.84.64h.41l-4,13.25,5.6-2.45V51.41h.29V62.2l5.6,2.45-4-13.25h.41a.88.88,0,0,0,.84-.64l8.65,6.88A2.13,2.13,0,0,0,60.57,56s-1.23-3.6-1.79-6.22H91.56Z"/></g></g></svg>