<svg xmlns="http://www.w3.org/2000/svg" viewBox="0 0 114.07 114.07"><defs><style>.cls-1{fill:#42210b;}.cls-2{fill:#ffd54f;}.cls-3{fill:#a67c52;}</style></defs><title>Nado</title><g id="Layer_2" data-name="Layer 2"><g id="Layer_1-2" data-name="Layer 1"><path id="Path_172" data-name="Path 172" class="cls-1" d="M57,114.07A57.05,57.05,0,0,1,34.83,4.48a57,57,0,0,1,44.41,105.1A56.68,56.68,0,0,1,57,114.07Z"/><path class="cls-2" d="M92,45l5.48-6H85.41l-4.35,4.35v0H79.62C73.3,55.89,52,65.13,26.65,65.13q-4.35,0-8.52-.36l3.92,4.31-5.48,6H28.66L33,70.76v0H81.07v0l4.35,4.35H97.49l-5.48-6,5.48-6L92,57l5.48-6Z"/><path class="cls-3" d="M66.94,43.35c-9,9-26.4,15.2-46.58,15.55l-3.79,4.17,1.56,1.72q4.16.35,8.52.36c25.34,0,46.65-9.23,53-21.78Z"/><path class="cls-2" d="M66.94,43.35H33v0L28.66,39H16.58l5.48,6-5.48,6,5.48,6-1.69,1.86C40.54,58.55,58,52.35,66.94,43.35Z"/></g></g></svg>