<svg xmlns="http://www.w3.org/2000/svg" viewBox="0 0 114.07 114.07"><defs><style>.cls-1{fill:#cddc39;}.cls-2{fill:#1b5e20;}.cls-3{fill:#789700;}.cls-4{fill:#33691e;}.cls-5{fill:#fff;}</style></defs><title>Nami</title><g id="Layer_2" data-name="Layer 2"><g id="Layer_1-2" data-name="Layer 1"><path id="Path_172" data-name="Path 172" class="cls-1" d="M57,114.07A57.05,57.05,0,0,1,34.83,4.48a57,57,0,0,1,44.41,105.1A56.68,56.68,0,0,1,57,114.07Z"/><path class="cls-2" d="M69.51,29.77l-1,2s-.52-5.16-2.09-8.15l-1.26,1.75c-.86-2-4.7-10-11.26-15.28-6.37,5.51-9.91,13.66-10.7,15.68L41.84,24c-1.45,3-1.79,8.22-1.79,8.22l-1.11-1.92a33.63,33.63,0,0,0-.64,12.29l-2-2.55c.9,31.26,36.41,31.12,36.17-.66L70.59,42A33.62,33.62,0,0,0,69.51,29.77Z"/><path class="cls-3" d="M68.79,37.39,55.7,53.17,55.29,41l8.58-12.92L55.2,38.55l-.43-12.67,2.94-5.83-3,3.63-.32-9.37-1.32,0,.12,9.37L50,20.24l3.21,5.68.16,12.68-9.14-10L53.4,41.08l.16,12.15L39.73,38.07,53.59,55.94l.05,4.22c.1-.11.85-1.1,1.11-1.5a12.94,12.94,0,0,0,1.19,1.46l-.15-4.23Z"/><path class="cls-4" d="M69.67,44.11l-.54,2.28s4-3.73,7.35-5l-.22,2.27C78.34,42.66,87,39,95.9,39.39c1.2,8.83-1.68,17.78-2.47,19.93l2.24-.42c-1,3.43-4.33,7.77-4.33,7.77l2.22-.74a35.58,35.58,0,0,1-8.09,10.2l3.36-.64c-22.57,24.2-50.68-.75-28.27-25.82l-.33,3.4A35.58,35.58,0,0,1,69.67,44.11Z"/><path class="cls-3" d="M64.91,50.66l-.64,21.69L73.1,63l2.23-16.26L74.9,61.09l9.2-9.76,1.74-6.68-.15,5,6.8-7.21,1,.95-6.65,7.36,5-.55-6.52,2.27-9,10L90.6,60.84l-16,3.52L65.95,73.9l21.57-2.37L64,76l-3,3.32c0-.16.09-1.47.17-2a13.7,13.7,0,0,1-2,.33l3.08-3.26Z"/><path class="cls-3" d="M40.32,44.53l.91,2.18s-4.61-3.06-8.12-3.79l.58,2.22c-2.22-.64-11.42-2.9-20.2-1.06.23,9,4.54,17.41,5.67,19.42l-2.29-.06c1.52,3.25,5.56,7,5.56,7l-2.33-.38a35.84,35.84,0,0,0,9.69,8.84l-3.44-.09C52.69,99.24,76.61,69.9,50.27,48.6l.88,3.33A35.84,35.84,0,0,0,40.32,44.53Z"/><path class="cls-4" d="M46.11,50.27l4.14,21.46L40,63.86,35.13,48.06l2.74,14.2L27.14,54l-2.81-6.36,1,4.94-7.93-6.07-.87,1.11,7.8,6.24-5,.26,6.85,1.2L36.66,63.8l-14.44.75,16.51.9,10.11,8.09L27,74.67l24.09.67,3.52,2.81c0-.16-.33-1.45-.49-1.93a13.8,13.8,0,0,0,2,0l-3.59-2.75Z"/><circle class="cls-5" cx="56.14" cy="80.56" r="15.2"/></g></g></svg>