<svg xmlns="http://www.w3.org/2000/svg" viewBox="0 0 114.07 114.07"><defs><style>.cls-1{fill:#aed581;}.cls-2{fill:#006837;}.cls-3{fill:#76ff03;}.cls-4{fill:#64dd17;stroke:#fff;stroke-miterlimit:10;stroke-width:2px;}</style></defs><title>Pazira</title><g id="Layer_2" data-name="Layer 2"><g id="Layer_1-2" data-name="Layer 1"><path id="Path_172" data-name="Path 172" class="cls-1" d="M57,114.07A57.05,57.05,0,0,1,34.83,4.48a57,57,0,0,1,44.41,105.1A56.68,56.68,0,0,1,57,114.07Z"/><path class="cls-2" d="M15.14,56.54a6,6,0,0,0,.71,2.19,3.58,3.58,0,0,1,0,3.46,6,6,0,0,0-.71,2.18L57,60.45Z"/><path class="cls-2" d="M34.22,70.62a10.79,10.79,0,0,0,3.47.6H76.58A10.8,10.8,0,0,0,80,70.65L57,62.07Z"/><path class="cls-2" d="M80.22,50.16a10.79,10.79,0,0,0-3.64-.65H37.69A10.78,10.78,0,0,0,34,50.2L57,58.83Z"/><path class="cls-2" d="M98.25,52.67a3.17,3.17,0,0,1-.44-1.73,1.44,1.44,0,0,0-1.44-1.44,1.41,1.41,0,0,0-.51.09,58.55,58.55,0,0,0-5.93,2.7,12.92,12.92,0,0,0-3,2.58l11.36-2.12Z"/><path class="cls-2" d="M28.34,65.81a10.85,10.85,0,0,0,2.57,3L57,61.08l26.26,7.76a10.85,10.85,0,0,0,2.6-3L57,60.45Z"/><path class="cls-2" d="M89.93,68.61a58.55,58.55,0,0,0,5.93,2.7,1.45,1.45,0,0,0,2-1.36,3.18,3.18,0,0,1,.44-1.73l0-.08L87,66A12.6,12.6,0,0,0,89.93,68.61Z"/><path class="cls-2" d="M30.74,52a10.85,10.85,0,0,0-2.5,3L57,60.45l29-5.4a10.86,10.86,0,0,0-2.52-3L57,59.82Z"/><path class="cls-2" d="M99,64.36a6,6,0,0,0-.71-2.19,3.57,3.57,0,0,1,0-3.46A6,6,0,0,0,99,56.54L57,60.45Z"/><path class="cls-3" d="M28.24,55.13c-.12.22-.26.43-.37.66l-.5-.56-.27-.31L15.81,52.81a6.65,6.65,0,0,0-.67,3.78l22.78,2.13a6.23,6.23,0,0,1,1-1.59Z"/><path class="cls-3" d="M15.14,64.41a6.63,6.63,0,0,0,.67,3.79l11.37-2.12.23-.26.56-.61c.11.23.25.43.38.65l10.6-2a6.23,6.23,0,0,1-1-1.59Z"/><path class="cls-3" d="M30.91,68.86a9.64,9.64,0,0,0,3.31,1.81l9.46-3.54a17.41,17.41,0,0,1-2.46-1.31Z"/><path class="cls-3" d="M80,70.7a9.68,9.68,0,0,0,3.35-1.8L72.88,65.81a17.42,17.42,0,0,1-2.46,1.31Z"/><path class="cls-3" d="M83.49,52.06a9.91,9.91,0,0,0-3.28-1.84l-9.8,3.67a17.42,17.42,0,0,1,2.46,1.31Z"/><path class="cls-3" d="M34,50.25a9.74,9.74,0,0,0-3.23,1.85l10.48,3.1a17.42,17.42,0,0,1,2.46-1.31Z"/><path class="cls-3" d="M99,56.59a6.66,6.66,0,0,0-.67-3.79L86.93,54.93l-.23.26-.39.42c-.09-.18-.2-.34-.3-.52l-10.86,2a6.23,6.23,0,0,1,1,1.59Z"/><path class="cls-3" d="M76.17,62.29a6.23,6.23,0,0,1-1,1.59l10.76,2c.12-.2.25-.39.36-.61l.45.51.26.3L98.29,68.2A6.66,6.66,0,0,0,99,64.41Z"/><ellipse class="cls-4" cx="57.05" cy="60.45" rx="19.5" ry="9.11"/><path class="cls-2" d="M15.85,68.24A3.18,3.18,0,0,1,16.3,70a1.44,1.44,0,0,0,1.44,1.44,1.42,1.42,0,0,0,.51-.09,58.63,58.63,0,0,0,5.93-2.7,12.92,12.92,0,0,0,3-2.59L15.81,68.15Z"/><path class="cls-2" d="M24.17,52.31a58.32,58.32,0,0,0-5.93-2.7,1.44,1.44,0,0,0-2,1.35,3.18,3.18,0,0,1-.44,1.73l0,.08L27.1,54.87A12.56,12.56,0,0,0,24.17,52.31Z"/></g></g></svg>