<svg xmlns="http://www.w3.org/2000/svg" viewBox="0 0 114.07 114.07"><defs><style>.cls-1{fill:#fb8c00;}.cls-2{fill:#ffd600;}.cls-3{fill:#d50000;}</style></defs><title>Picnic</title><g id="Layer_2" data-name="Layer 2"><g id="Layer_1-2" data-name="Layer 1"><path id="Path_172" data-name="Path 172" class="cls-1" d="M56.65,114.07A57.05,57.05,0,0,1,35.19,4.33a57,57,0,0,1,43.69,105.4A56.68,56.68,0,0,1,56.65,114.07Z"/><path class="cls-2" d="M90.12,37.24l6.11-6.63-10.92-.07-2.46,0-4.74,4.67c-3.94-1-11.82-1.71-20.92-1.77s-17,.55-20.94,1.49l-4.67-4.74-2.46,0L18.2,30.09l6,6.71-6.11,6.63,6,6.71L18,56.77l6,6.71-6.11,6.63,6,6.71-6.11,6.63,10.92.07,2.46,0L36,78.88c3.94,1,11.82,1.71,20.92,1.77s17-.55,20.94-1.49l4.67,4.74,2.46,0L95.87,84l-6-6.71L96,70.64l-6-6.71,6.11-6.63-6-6.71L96.14,44Z"/><ellipse class="cls-3" cx="57.04" cy="57.03" rx="9.32" ry="16.36" transform="translate(-0.38 113.68) rotate(-89.61)"/></g></g></svg>