<svg xmlns="http://www.w3.org/2000/svg" viewBox="0 0 114.07 114.07"><defs><style>.cls-1{fill:#fb8c00;}.cls-2{fill:#ffe082;}.cls-3{fill:none;}.cls-4{fill:#fff;}.cls-5{fill:#d81b60;}</style></defs><title>Rabbit</title><g id="Layer_2" data-name="Layer 2"><g id="Layer_1-2" data-name="Layer 1"><path id="Path_172" data-name="Path 172" class="cls-1" d="M57,114.07A57.05,57.05,0,0,1,34.83,4.48a57,57,0,0,1,44.41,105.1A56.68,56.68,0,0,1,57,114.07Z"/><path class="cls-2" d="M56,50.22s-3.21-9-.58-22.14S62,10.85,62,10.85,68.55,26,67.18,34.22s-8,15.42-8,15.42Z"/><path class="cls-2" d="M58.15,50.13s3-9.06.05-22.14-7-17.07-7-17.07-6.18,15.25-4.61,23.49S55,49.63,55,49.63Z"/><path class="cls-2" d="M57,72a15.56,15.56,0,0,0,8.73-5.64,18.33,18.33,0,0,0,3.11-6.78c-.69-4.55-1.3-8.43-1.3-9.67,0-6.39-4.72-11.57-10.54-11.57S46.49,43.54,46.49,49.93c0,1.24-.61,5.12-1.3,9.67a18.33,18.33,0,0,0,3.11,6.78A15.56,15.56,0,0,0,57,72Z"/><path class="cls-3" d="M43.24,97.11c0,4.1,2,6.1,4.48,6.1H66.35c2.47,0,4.48-2,4.48-6.1V76.44a103.11,103.11,0,0,0-1.26-12.17,16.13,16.13,0,0,1-2.76,4.65A17.91,17.91,0,0,1,57,74.57a17.91,17.91,0,0,1-9.78-5.64,16.13,16.13,0,0,1-2.76-4.65,103.1,103.1,0,0,0-1.26,12.17Z"/><path class="cls-4" d="M57,74.57a17.91,17.91,0,0,0,9.78-5.64,16.13,16.13,0,0,0,2.76-4.65c-.23-1.58-.47-3.17-.69-4.68a18.33,18.33,0,0,1-3.11,6.78A15.56,15.56,0,0,1,57,72a15.56,15.56,0,0,1-8.73-5.64A18.33,18.33,0,0,1,45.2,59.6c-.23,1.51-.47,3.09-.69,4.68a16.13,16.13,0,0,0,2.76,4.65A17.91,17.91,0,0,0,57,74.57Z"/><path class="cls-5" d="M43.24,97.11c0,4.1,2,6.1,4.48,6.1H66.35c2.47,0,4.48-2,4.48-6.1V76.44a103.11,103.11,0,0,0-1.26-12.17,16.13,16.13,0,0,1-2.76,4.65A17.91,17.91,0,0,1,57,74.57a17.91,17.91,0,0,1-9.78-5.64,16.13,16.13,0,0,1-2.76-4.65,103.1,103.1,0,0,0-1.26,12.17Z"/><path class="cls-2" d="M62.27,98A5.23,5.23,0,0,0,57,103.19a5.23,5.23,0,0,0-10.47,0H67.5A5.24,5.24,0,0,0,62.27,98Z"/></g></g></svg>