<svg xmlns="http://www.w3.org/2000/svg" viewBox="0 0 114.07 114.07"><defs><style>.cls-1{fill:#d81b60;}.cls-2{fill:#fff;}.cls-3{fill:#ffd600;}.cls-4{fill:#ff8f00;}</style></defs><title>Ramand</title><g id="Layer_2" data-name="Layer 2"><g id="Layer_1-2" data-name="Layer 1"><path id="Path_172" data-name="Path 172" class="cls-1" d="M57,114.07A57.05,57.05,0,0,1,34.83,4.48a57,57,0,0,1,44.41,105.1A56.68,56.68,0,0,1,57,114.07Z"/><path class="cls-2" d="M70,18.73l-5.21,62.4A3.35,3.35,0,0,1,61.4,84.2H50.2a3.35,3.35,0,0,1-3.34-3.05L41.26,18.73Z"/><path class="cls-3" d="M51.62,84.89H49.49v8.46a3.72,3.72,0,0,0,3.72,3.72h0V84.89H51.62Z"/><polygon class="cls-3" points="54.54 84.89 53.75 84.89 53.75 97.07 54.54 97.07 55.34 97.07 57.47 97.07 57.47 84.89 55.34 84.89 54.54 84.89"/><path class="cls-3" d="M60.92,84.89H58V97.07h0a3.72,3.72,0,0,0,3.72-3.72V84.89Z"/><rect class="cls-4" x="54.3" y="1.75" width="2.6" height="28.7" transform="translate(39.5 71.71) rotate(-90)"/></g></g></svg>