<svg xmlns="http://www.w3.org/2000/svg" viewBox="0 0 114.07 114.07"><defs><style>.cls-1{fill:#8c6239;}.cls-2{fill:#3e2723;}.cls-3{fill:#ffc400;}</style></defs><title>Ramtin</title><g id="Layer_2" data-name="Layer 2"><g id="Layer_1-2" data-name="Layer 1"><path id="Path_172" data-name="Path 172" class="cls-1" d="M57,114.07A57.05,57.05,0,0,1,34.83,4.48a57,57,0,0,1,44.41,105.1A56.68,56.68,0,0,1,57,114.07Z"/><path class="cls-2" d="M92.54,47.15,97,42.2H87.12l-3.57,3.57v0H57V55H54.15V45.8H52.31V55H49.42V45.8H47.58V55H44.7V45.8H42.85V55H40V45.8H38.13V55H35.24V45.8H33.4V55H30.52V45.77L27,42.2H17l4.49,4.94L17,52.09,21.53,57,17,62l4.49,4.94L17,71.87H27l3.57-3.57v0h53v0l3.57,3.57H97l-4.49-4.94L97,62,92.54,57,97,52.09Z"/><rect class="cls-3" x="30.52" y="45.8" width="2.88" height="13.15"/><rect class="cls-3" x="35.24" y="45.8" width="2.88" height="13.15"/><rect class="cls-3" x="39.97" y="45.8" width="2.88" height="13.15"/><rect class="cls-3" x="44.7" y="45.8" width="2.88" height="13.15"/><rect class="cls-3" x="49.42" y="45.8" width="2.88" height="13.15"/><rect class="cls-3" x="54.15" y="45.8" width="2.88" height="13.15"/></g></g></svg>