<svg xmlns="http://www.w3.org/2000/svg" viewBox="0 0 114.07 114.07"><defs><style>.cls-1{fill:#e91e63;}.cls-2{fill:#fff;}.cls-3{fill:#f7931e;}</style></defs><title>Skate</title><g id="Layer_2" data-name="Layer 2"><g id="Layer_1-2" data-name="Layer 1"><path id="Path_172" data-name="Path 172" class="cls-1" d="M57,114.07A57.05,57.05,0,0,1,34.83,4.48a57,57,0,0,1,44.41,105.1A56.68,56.68,0,0,1,57,114.07Z"/><path d="M87.26,68.64,90.63,72H100l-4.25-4.67L100,62.67,95.75,58,100,53.33l-4.25-4.67L100,44H90.63l-3.37,3.37v0H85.44V68.62h1.82Z"/><polygon class="cls-2" points="63.37 68.62 85.44 68.62 85.44 47.39 44.18 47.39 63.37 68.62"/><path d="M29.34,47.39H24.21v0L20.84,44H11.47l4.25,4.67-4.25,4.67L15.72,58l-4.25,4.67,4.25,4.67L11.47,72h9.37l3.37-3.37v0H58.42L39.35,47.39Z"/><polygon class="cls-3" points="44.18 47.39 39.35 47.39 58.42 68.62 63.37 68.62 44.18 47.39"/></g></g></svg>