<svg xmlns="http://www.w3.org/2000/svg" viewBox="0 0 114.07 114.07"><defs><style>.cls-1{fill:#ffd54f;}.cls-2{fill:#fff;}.cls-3{fill:#ffd600;}</style></defs><title>Soral</title><g id="Layer_2" data-name="Layer 2"><g id="Layer_1-2" data-name="Layer 1"><path id="Path_172" data-name="Path 172" class="cls-1" d="M57,114.07A57.05,57.05,0,0,1,34.83,4.48a57,57,0,0,1,44.41,105.1A56.68,56.68,0,0,1,57,114.07Z"/><path class="cls-2" d="M30.51,63.37h0a7,7,0,0,0,7,6.9H76.78a7,7,0,0,0,7-6.73,12.07,12.07,0,0,0,3,2.52,70.45,70.45,0,0,0,7.13,3.24,1.73,1.73,0,0,0,2.35-1.62,3.81,3.81,0,0,1,.53-2.07h0a7.75,7.75,0,0,0,0-7.27,4.3,4.3,0,0,1,0-4.15,7.76,7.76,0,0,0,0-7.28,3.82,3.82,0,0,1-.54-2.08,1.73,1.73,0,0,0-1.73-1.73,1.71,1.71,0,0,0-.61.11,70.73,70.73,0,0,0-7.13,3.24A12.72,12.72,0,0,0,83.69,49a7,7,0,0,0-6.91-5.91H37.51a7,7,0,0,0-6.95,6.15,12.83,12.83,0,0,0-3.27-2.8,70.57,70.57,0,0,0-7.13-3.24,1.73,1.73,0,0,0-2.35,1.62,3.81,3.81,0,0,1-.53,2.08,7.76,7.76,0,0,0,0,7.28,4.3,4.3,0,0,1,0,4.15,7.78,7.78,0,0,0,0,7.28,3.82,3.82,0,0,1,.53,2.08,1.73,1.73,0,0,0,1.73,1.73,1.72,1.72,0,0,0,.61-.11,70.63,70.63,0,0,0,7.13-3.24,12.89,12.89,0,0,0,3.22-2.69Z"/><g id="Path_173" data-name="Path 173"><path class="cls-3" d="M73.38,68h-32a7,7,0,0,1-6.95-7v-9a7,7,0,0,1,6.95-7h32a7,7,0,0,1,7,7v9A7,7,0,0,1,73.38,68Z"/><path class="cls-3" d="M73.38,68a6.91,6.91,0,0,0,6.9-6.9v-9a6.91,6.91,0,0,0-6.9-6.9h-32a6.91,6.91,0,0,0-6.9,6.9v9a6.91,6.91,0,0,0,6.9,6.9h32m0,.1h-32a7,7,0,0,1-7-7v-9a7,7,0,0,1,7-7h32a7,7,0,0,1,7,7v9A7,7,0,0,1,73.38,68.09Z"/></g></g></g></svg>