<svg xmlns="http://www.w3.org/2000/svg" viewBox="0 0 114.07 114.07"><defs><style>.cls-1{fill:#f06292;}.cls-2{fill:#1a237e;}.cls-3{fill:#fff;}.cls-4{fill:#ffc107;}</style></defs><title>Symphony</title><g id="Layer_2" data-name="Layer 2"><g id="Layer_1-2" data-name="Layer 1"><path id="Path_172" data-name="Path 172" class="cls-1" d="M57,114.07A57.05,57.05,0,0,1,34.83,4.48a57,57,0,0,1,44.41,105.1A56.68,56.68,0,0,1,57,114.07Z"/><polygon class="cls-2" points="25.12 42.2 17.04 42.2 21.53 47.15 17.04 52.09 21.53 57.03 17.04 61.98 21.53 66.92 17.04 71.86 25.12 71.86 26.79 71.86 26.79 42.2 25.12 42.2"/><polygon class="cls-2" points="97.03 71.86 92.54 66.92 97.03 61.98 92.54 57.03 97.03 52.09 92.54 47.15 97.03 42.2 88.94 42.2 87.28 42.2 87.28 71.86 88.94 71.86 97.03 71.86"/><path class="cls-3" d="M87.12,42.2l-3.57,3.57v0h-.17a75.61,75.61,0,0,0-8.48-1.48v2a17.87,17.87,0,1,1-35.73,0v-2a75.61,75.61,0,0,0-8.48,1.48h-.17v0L27,42.2h-.16V71.87H27l3.57-3.57v0h.17c6.26,1.53,15.74,2.5,26.35,2.5s20.09-1,26.35-2.5h.17v0l3.57,3.57h.16V42.2Z"/><path class="cls-4" d="M57,64.23A17.87,17.87,0,0,0,74.9,46.36v-2q-1.7-.21-3.53-.38V47.6a14.33,14.33,0,0,1-28.67,0V43.93q-1.83.17-3.53.38v2A17.87,17.87,0,0,0,57,64.23Z"/><path class="cls-2" d="M57,61.93A14.33,14.33,0,0,0,71.37,47.6V43.93C67,43.52,62.16,43.3,57,43.3s-10,.23-14.33.64V47.6A14.33,14.33,0,0,0,57,61.93Z"/></g></g></svg>