<svg xmlns="http://www.w3.org/2000/svg" viewBox="0 0 114.07 114.07"><defs><style>.cls-1{fill:#f7931e;}.cls-2{fill:#d50000;}.cls-3{fill:#3e2723;}</style></defs><title>Tablet</title><g id="Layer_2" data-name="Layer 2"><g id="Layer_1-2" data-name="Layer 1"><path id="Path_172" data-name="Path 172" class="cls-1" d="M57,114.07A57.05,57.05,0,0,1,34.83,4.48a57,57,0,0,1,44.41,105.1A56.68,56.68,0,0,1,57,114.07Z"/><polygon class="cls-2" points="37.45 60.61 68.25 68.33 76.62 65.65 76.62 88.68 37.45 88.68 37.45 60.61"/><path class="cls-3" d="M72.7,25.39H41.35a1.78,1.78,0,0,0-1.77,1.77V59.24l28.65,6.81,6.25-2V27.18A1.79,1.79,0,0,0,72.7,25.39ZM67.46,48.65H61.25v6.54l-2.44,2.33V46.32H70Zm-14.25,0H47v6.54l-2.44,2.33V46.32h11.2ZM67.46,33.27H61.25v6.54l-2.44,2.33V30.95H70Zm-14.25,0H47v6.54l-2.44,2.33V30.95h11.2Z"/></g></g></svg>