<svg xmlns="http://www.w3.org/2000/svg" viewBox="0 0 114.07 114.07"><defs><style>.cls-1{fill:#ff6f00;}.cls-2{fill:#ffc107;}.cls-3{fill:#42210b;}</style></defs><title>Talo</title><g id="Layer_2" data-name="Layer 2"><g id="Layer_1-2" data-name="Layer 1"><path id="Path_172" data-name="Path 172" class="cls-1" d="M57,114.07A57.05,57.05,0,0,1,34.83,4.48a57,57,0,0,1,44.41,105.1A56.68,56.68,0,0,1,57,114.07Z"/><path class="cls-2" d="M79.59,64.66c-3-5.75-.09-8-.09-8a7.24,7.24,0,0,0-.05-7.25A4.75,4.75,0,0,1,79.35,45,135,135,0,0,0,57,43.3a131,131,0,0,0-23.44,1.88,7.16,7.16,0,0,0,.89,5.23c3,5.75.09,8,.09,8a7.24,7.24,0,0,0,.05,7.25,4.31,4.31,0,0,1,.41,3.5,136,136,0,0,0,22,1.62,130.47,130.47,0,0,0,23.6-1.91A8,8,0,0,0,79.59,64.66Z"/><path class="cls-3" d="M34.62,65.65a7.24,7.24,0,0,1-.05-7.25s2.91-2.25-.09-8a7.16,7.16,0,0,1-.89-5.23c-1,.2-2,.4-2.9.62h-.17v0L27,42.2H17l4.49,4.94L17,52.09,21.53,57,17,62l4.49,4.94L17,71.87H27l3.57-3.57v0h.17c1.31.32,2.77.61,4.35.88A4.31,4.31,0,0,0,34.62,65.65Z"/><path class="cls-3" d="M83.55,68.27v0l3.57,3.57H97l-4.49-4.94L97,62,92.54,57,97,52.09l-4.49-4.94L97,42.2H87.12l-3.57,3.57v0h-.17c-1.22-.3-2.57-.58-4-.83a4.75,4.75,0,0,0,.09,4.44,7.24,7.24,0,0,1,.05,7.25s-2.91,2.25.09,8a8,8,0,0,1,1,4.2c1-.19,1.89-.38,2.74-.59Z"/></g></g></svg>