<svg xmlns="http://www.w3.org/2000/svg" viewBox="0 0 114.07 114.07"><defs><style>.cls-1{fill:#fb8c00;}.cls-2{fill:#ffd54f;}.cls-3{fill:#e65100;}</style></defs><title>Toffis butter</title><g id="Layer_2" data-name="Layer 2"><g id="Layer_1-2" data-name="Layer 1"><path id="Path_172" data-name="Path 172" class="cls-1" d="M57,114.07A57.05,57.05,0,0,1,34.83,4.48a57,57,0,0,1,44.41,105.1A56.68,56.68,0,0,1,57,114.07Z"/><path class="cls-2" d="M57,81.56h0a23.92,23.92,0,0,1-9.86-2.11,25.86,25.86,0,0,0,3.33-7.7,6.63,6.63,0,0,0-.11-3.17A7.28,7.28,0,0,0,48.91,66c-4.69-6.79-2.76-9.82-.9-12.75a10,10,0,0,0,2-4.77,7.81,7.81,0,0,0-.53-3.2,17.81,17.81,0,0,0-2.32-4.18A8.17,8.17,0,0,1,46,36.15a24,24,0,0,1,22.93.45,1.8,1.8,0,0,1,.31.18A21.93,21.93,0,0,1,76,43.54a32.76,32.76,0,0,1,4.15,8.92,17.64,17.64,0,0,0,1.49-1.57,15.7,15.7,0,0,1,4-3.6,73.38,73.38,0,0,1,7.43-3.38,1.81,1.81,0,0,1,2.44,1.69,4,4,0,0,0,.56,2.16,8.08,8.08,0,0,1,0,7.58,4.48,4.48,0,0,0,0,4.33,8.08,8.08,0,0,1,0,7.58,4,4,0,0,0-.56,2.17c0,.57-1.65,1.71-2.3,1.71l-.14,0a73.31,73.31,0,0,1-7.43-3.38,16.07,16.07,0,0,1-4-3.56,18.5,18.5,0,0,0-1.46-1.51A39.6,39.6,0,0,1,77.79,69,20.62,20.62,0,0,1,74,74.52a23.93,23.93,0,0,1-17,7Z"/><path class="cls-3" d="M44.12,77.81h0A24.2,24.2,0,0,1,40,74.52c-3.44-3.44-5.42-9.44-6.11-11.85a18.7,18.7,0,0,0-1.46,1.51,16.21,16.21,0,0,1-4,3.57A73.3,73.3,0,0,1,21,71.11a1.81,1.81,0,0,1-2.45-1.69A4,4,0,0,0,18,67.26a8.08,8.08,0,0,1,0-7.58,4.49,4.49,0,0,0,0-4.33,8.08,8.08,0,0,1,0-7.58,4,4,0,0,0,.56-2.17A1.81,1.81,0,0,1,21,43.9a73.31,73.31,0,0,1,7.43,3.38,15.81,15.81,0,0,1,4,3.6,17.78,17.78,0,0,0,1.49,1.57c.7-2.46,2.71-8.55,6.11-12a24.23,24.23,0,0,1,2.13-1.89,8.91,8.91,0,0,0,1,2.48c4.56,6.38,2.77,9.18.89,12.15a10.31,10.31,0,0,0-2,4.94,8.43,8.43,0,0,0,.53,3.37A19.07,19.07,0,0,0,44.93,66a6.34,6.34,0,0,1,1.6,5.76,21.54,21.54,0,0,1-2.41,6.05Z"/></g></g></svg>