<svg xmlns="http://www.w3.org/2000/svg" viewBox="0 0 114.07 114.07"><defs><style>.cls-1{fill:#ffee58;}.cls-2{fill:#ffc107;}.cls-3{fill:#1a237e;}.cls-4{fill:#d50000;}.cls-5{fill:#ff6f00;}.cls-6{fill:#f9a825;}</style></defs><title>Toffis Yellow</title><g id="Layer_2" data-name="Layer 2"><g id="Layer_1-2" data-name="Layer 1"><path id="Path_172" data-name="Path 172" class="cls-1" d="M57,114.07A57.05,57.05,0,0,1,34.83,4.48a57,57,0,0,1,44.41,105.1A56.68,56.68,0,0,1,57,114.07Z"/><path class="cls-2" d="M34.24,49.27c-.3.85-.58,1.73-.83,2.6a18.17,18.17,0,0,1-1.52-1.6,16.14,16.14,0,0,0-4.11-3.68,74.82,74.82,0,0,0-7.59-3.45,1.85,1.85,0,0,0-2.5,1.73,4.06,4.06,0,0,1-.57,2.21,8.26,8.26,0,0,0,0,7.75,4.59,4.59,0,0,1,0,4.43,8.26,8.26,0,0,0,0,7.75,4.06,4.06,0,0,1,.57,2.21,1.85,1.85,0,0,0,1.85,1.85h0a1.84,1.84,0,0,0,.66-.12,74.84,74.84,0,0,0,7.59-3.45,16.55,16.55,0,0,0,4.14-3.64,19.1,19.1,0,0,1,1.49-1.54c.28,1,.59,1.94.94,2.9l6.35-7.58L41,57.3,40.71,57Z"/><path class="cls-2" d="M96.38,57a4.07,4.07,0,0,1,.57-2.21,8.26,8.26,0,0,0,0-7.75,4.07,4.07,0,0,1-.57-2.21,1.85,1.85,0,0,0-2.5-1.73,75,75,0,0,0-7.59,3.45,16.06,16.06,0,0,0-4.1,3.68,18,18,0,0,1-1.52,1.6,31.9,31.9,0,0,0-1-3L72.79,57l-.27.32.27.32,6.76,8.05c.42-1.1.8-2.24,1.12-3.38a18.91,18.91,0,0,1,1.49,1.54,16.42,16.42,0,0,0,4.12,3.64,75,75,0,0,0,7.59,3.45L94,71h0c.66,0,2.35-1.17,2.36-1.75A4.06,4.06,0,0,1,96.95,67a8.27,8.27,0,0,0,0-7.75A4.07,4.07,0,0,1,96.38,57Z"/><polygon class="cls-2" points="57.13 45.19 56.75 44.73 56.37 45.19 46.47 56.98 46.2 57.3 46.47 57.62 56.37 69.42 56.75 69.87 57.13 69.42 67.03 57.62 67.3 57.3 67.03 56.98 57.13 45.19"/><path class="cls-3" d="M56.75,76.1l-.38.46-3.89,4.63a24.86,24.86,0,0,0,8.61.09l-4-4.72Z"/><path class="cls-4" d="M70.3,60.87l-.38-.46-.38.46-9.9,11.79-.27.32.27.32,5.75,6.85h0a24.36,24.36,0,0,0,9-5.74,19.7,19.7,0,0,0,3.31-4.68Z"/><path class="cls-5" d="M54.14,73l-.27-.32L44,60.88l-.38-.46-.38.46-7.08,8.44a20.16,20.16,0,0,0,3.53,5.1A24.39,24.39,0,0,0,48.26,80h0l5.61-6.68Z"/><polygon class="cls-6" points="69.91 54.19 69.91 54.19 69.91 54.19 69.91 54.19"/><path class="cls-5" d="M59.36,41.62l.27.32,9.9,11.79.38.45.38-.45,7.43-8.86c-1.6-2.84-4.32-6.72-8.25-9a1.76,1.76,0,0,0-.31-.18A24.71,24.71,0,0,0,65.71,34L59.63,41.3Z"/><path class="cls-4" d="M43.59,54.19h0l.38-.46,9.9-11.79.27-.32-.27-.32-5.95-7.09a24.41,24.41,0,0,0-8.27,5.45A20.47,20.47,0,0,0,36,45.11l7.23,8.62Z"/><polygon class="cls-6" points="56.75 38.51 56.75 38.51 56.75 38.51 56.75 38.51"/><path class="cls-3" d="M56.75,38.51l.38-.45,4.35-5.19a24.6,24.6,0,0,0-9.39.09l4.27,5.09Z"/></g></g></svg>