<svg xmlns="http://www.w3.org/2000/svg" viewBox="1192 446 45 45">
  <defs>
    <style>
      .cls-1 {
        fill: #ff0;
      }
    </style>
  </defs>
  <path id="Subtraction_10" data-name="Subtraction 10" class="cls-1" d="M22.5,45A22.5,22.5,0,0,1,6.59,6.59,22.5,22.5,0,1,1,38.41,38.41,22.353,22.353,0,0,1,22.5,45ZM14,12.425V33.275H31.774l0-20.849H28.551V13.55a1.707,1.707,0,0,1-1.725,1.724h-7.8A1.706,1.706,0,0,1,17.3,13.55V12.425Zm5.025-2.25a.594.594,0,0,0-.6.6V13.55c.071.289.289.6.6.6h7.8a.594.594,0,0,0,.6-.6V10.775a.594.594,0,0,0-.6-.6H25.1a2.175,2.175,0,1,0-4.35,0Zm4.094,18.966h0V24.492l1.446-1.239a3.971,3.971,0,0,1,.362.31l.051.207c.089.044.805.168,1.023.2l.011,0a1.1,1.1,0,0,1,.671.413,10.822,10.822,0,0,1,.879,3,1.58,1.58,0,0,1,.024.233v.034a.527.527,0,0,1-.179.456,2.806,2.806,0,0,1-1.54.544,1.136,1.136,0,0,1-.267-.027A7.135,7.135,0,0,1,23.119,29.141Zm-.518,0h0c-2.17-.052-2.566-.548-2.582-.569a1.133,1.133,0,0,1-.306.04,3.535,3.535,0,0,1-1.5-.5A.482.482,0,0,1,18,27.643a14.826,14.826,0,0,1,.723-2.944c.254-.661.719-.724.724-.724.239-.04.771-.176,1.067-.254l.017,0a2.383,2.383,0,0,1,.619-.567L22.6,24.44v4.7Zm.362-5.166h0l-1.5-1.342v-.878a6.193,6.193,0,0,1-.362-.878c-.459-.2-.464-.871-.464-.878,0-.3.152-.361.154-.361a2.425,2.425,0,0,1,.293-1.889.9.9,0,0,1,.587-.333A1.7,1.7,0,0,1,22.839,17l.07,0a2.173,2.173,0,0,1,1.7.733,2.618,2.618,0,0,1,.419,1.9c.138.093.111.4.1.463-.049.682-.468.817-.516.83A3.721,3.721,0,0,1,24.2,21.96l.052.723a.231.231,0,0,0,.155.052l-1.446,1.239Zm-.038-12.9a.988.988,0,0,1-.976-.976.975.975,0,1,1,.976.976Z" transform="translate(1192 446)"/>
</svg>
