<svg xmlns="http://www.w3.org/2000/svg" viewBox="1192 264 45 45">
  <defs>
    <style>
      .cls-1 {
        fill: #ec407a;
      }
    </style>
  </defs>
  <path id="Subtraction_9" data-name="Subtraction 9" class="cls-1" d="M22.5,45a22.429,22.429,0,1,1,8.768-1.765A22.422,22.422,0,0,1,22.5,45ZM15.225,9.3a2.778,2.778,0,0,0-2.776,2.775v21.75A2.778,2.778,0,0,0,15.225,36.6h9.9A2.778,2.778,0,0,0,27.9,33.825v-9.15L26.325,26.25v.075A2.367,2.367,0,0,1,25.8,27.75v3.3H14.625V13.575h11.1v9.15l2.1-2.176V12.075A2.778,2.778,0,0,0,25.05,9.3ZM20.55,22.2h0l2.4,3.3a1.587,1.587,0,0,0-.3.825,1.425,1.425,0,1,0,2.7-.6l4.8-4.875a1.121,1.121,0,0,0,.675.15,1.423,1.423,0,0,0,.6-.15L34.2,24.3a.4.4,0,0,0,.346.179.6.6,0,0,0,.329-.1.38.38,0,0,0,.275-.228.41.41,0,0,0-.05-.373l-2.85-3.6c.015-.046.031-.089.046-.131a1.309,1.309,0,0,0,.1-.47,1.425,1.425,0,0,0-2.85,0,1.279,1.279,0,0,0,.075.525L24.75,25.05,24.617,25a1.3,1.3,0,0,0-.467-.1.677.677,0,0,0-.375.075l-2.475-3.3a1.26,1.26,0,0,0,.225-.75,1.425,1.425,0,1,0-2.7.6l-2.475,2.25a.479.479,0,1,0,.675.675L19.5,22.125l.132.046a1.3,1.3,0,0,0,.468.1.956.956,0,0,0,.449-.075Zm.826,12.375H19.05a.325.325,0,0,1-.3-.3V32.7a.325.325,0,0,1,.3-.3h2.325a.325.325,0,0,1,.3.3v1.575A.325.325,0,0,1,21.375,34.575Zm4.05-1.125h-2.25a.325.325,0,0,1-.3-.3V32.7a.325.325,0,0,1,.3-.3h2.25a.325.325,0,0,1,.3.3v.45A.325.325,0,0,1,25.425,33.45Zm-8.25,0h-2.25a.325.325,0,0,1-.3-.3V32.7a.325.325,0,0,1,.3-.3h2.25a.32.32,0,0,1,.3.3v.45A.325.325,0,0,1,17.175,33.45Zm4.35-21.525H18.9a.432.432,0,0,1-.45-.45.286.286,0,0,1,.045-.263.5.5,0,0,1,.405-.187h2.625a.45.45,0,0,1,0,.9Z" transform="translate(1192 264)"/>
</svg>
