<svg xmlns="http://www.w3.org/2000/svg" viewBox="1192 128 45 45">
  <defs>
    <style>
      .cls-1 {
        fill: #fff;
      }
    </style>
  </defs>
  <path id="Subtraction_11" data-name="Subtraction 11" class="cls-1" d="M22.5,45A22.5,22.5,0,0,1,6.59,6.59,22.5,22.5,0,1,1,38.41,38.41,22.353,22.353,0,0,1,22.5,45Zm.125-19.185A14.844,14.844,0,0,0,8.24,36.958a20.146,20.146,0,0,0,28.772,0A14.844,14.844,0,0,0,22.625,25.815Zm0-17.329a8.252,8.252,0,1,0,8.252,8.252A8.261,8.261,0,0,0,22.625,8.486Z" transform="translate(1192 128)"/>
</svg>
