<svg xmlns="http://www.w3.org/2000/svg" viewBox="1192 677 45 45">
  <defs>
    <style>
      .cls-1 {
        fill: #f5f5f5;
      }
    </style>
  </defs>
  <path id="Subtraction_2" data-name="Subtraction 2" class="cls-1" d="M22.5,45A22.5,22.5,0,0,1,6.59,6.59,22.5,22.5,0,1,1,38.41,38.41,22.353,22.353,0,0,1,22.5,45Zm.289-33c-6.751,0-12.244,4.283-12.244,9.548a8.922,8.922,0,0,0,4.493,7.413l1.011,6.064,4.831-4.042a10.931,10.931,0,0,0,1.909.113c6.752,0,12.245-4.283,12.245-9.548S29.541,12,22.789,12Zm-.271,15a.7.7,0,1,1,.7-.7A.705.705,0,0,1,22.518,27Zm0-2.406a.705.705,0,0,1-.7-.7V16.434a.7.7,0,1,1,1.409,0v7.454A.7.7,0,0,1,22.518,24.592Z" transform="translate(1192 677)"/>
</svg>
