<svg xmlns="http://www.w3.org/2000/svg" viewBox="1191.9 565 45 45">
  <defs>
    <style>
      .cls-1 {
        fill: #f5f5f5;
      }
    </style>
  </defs>
  <path id="Subtraction_7" data-name="Subtraction 7" class="cls-1" d="M22.5,45A22.506,22.506,0,0,1,13.742,1.768,22.506,22.506,0,0,1,31.258,43.232,22.358,22.358,0,0,1,22.5,45ZM9.6,32.324a.525.525,0,1,0,0,1.05H35.7a.514.514,0,0,0,.526-.525.561.561,0,0,0-.526-.525ZM30.15,17.25v13.5h3.675V17.25ZM17.7,15.524V30.75h3.675V15.524Zm-6.3,4.2V30.75h3.675V19.725ZM23.925,21.6v9.075H27.6V21.6ZM20.1,12.15h0a16.491,16.491,0,0,0,2.025,1.874l.014.013a25.746,25.746,0,0,1,2.011,1.938,1.5,1.5,0,0,0-.225.825,1.725,1.725,0,1,0,3.451,0,1.369,1.369,0,0,0-.043-.316.971.971,0,0,1-.032-.209c.351-.25.775-.505,1.185-.751.2-.122.415-.249.615-.374.26-.162.533-.324.8-.481.346-.205.673-.4.928-.569a1.711,1.711,0,0,0,1.05.3,1.789,1.789,0,0,0,1.65-1.2H34.95a.525.525,0,1,0,0-1.05H33.525a1.788,1.788,0,0,0-1.65-1.2,1.707,1.707,0,0,0-1.725,1.725,1.368,1.368,0,0,0,.043.316.967.967,0,0,1,.032.209,16.266,16.266,0,0,1-1.65.975c-.5.277-.992.591-1.468.894-.165.105-.326.208-.482.305a1.587,1.587,0,0,0-1.051-.3,2.615,2.615,0,0,0-.75.15c-.285-.285-.6-.587-.94-.906-.377-.357-.766-.725-1.159-1.119-.277-.277-.567-.541-.847-.8a14.326,14.326,0,0,1-1.1-1.078A1.5,1.5,0,0,0,21,10.5a1.748,1.748,0,0,0-1.724-1.725A1.707,1.707,0,0,0,17.55,10.5a1.458,1.458,0,0,0,.038.3,1.459,1.459,0,0,1,.038.3c-.491.35-1.058.775-1.607,1.186l-.118.089-.042.028c-.649.433-1.319.88-1.833,1.247a1.5,1.5,0,0,0-.975-.3,1.788,1.788,0,0,0-1.65,1.2H9.975a.513.513,0,0,0-.525.525c.075.376.3.6.6.6h1.425a1.788,1.788,0,0,0,1.65,1.2,1.707,1.707,0,0,0,1.725-1.725,1.458,1.458,0,0,0-.038-.3,1.459,1.459,0,0,1-.038-.3c.188-.135.395-.278.613-.429.4-.275.8-.558,1.187-.846s.795-.574,1.19-.848c.217-.151.422-.293.61-.428a1.506,1.506,0,0,0,.975.3,2.757,2.757,0,0,0,.749-.15Zm5.55,5.4a.675.675,0,1,1,.675-.675A.675.675,0,0,1,25.65,17.549ZM13.125,15.825a.675.675,0,1,1,.675-.676A.676.676,0,0,1,13.125,15.825Zm18.75-2.475a.675.675,0,1,1,.675-.675A.675.675,0,0,1,31.875,13.35ZM19.35,11.25a.675.675,0,1,1,.676-.676A.676.676,0,0,1,19.35,11.25Z" transform="translate(1191.9 565)"/>
</svg>
