<svg xmlns="http://www.w3.org/2000/svg" viewBox="1191 385 45 45">
  <defs>
    <style>
      .cls-1 {
        fill: #ffca28;
      }
    </style>
  </defs>
  <path id="Subtraction_3" data-name="Subtraction 3" class="cls-1" d="M22.5,45A22.506,22.506,0,0,1,13.742,1.768,22.506,22.506,0,0,1,31.258,43.232,22.36,22.36,0,0,1,22.5,45ZM16.072,28.871a2.379,2.379,0,0,0-2.348,2.4v.075A2.508,2.508,0,0,0,16.2,33.825H31.275v-4.95H16.2C16.158,28.873,16.115,28.871,16.072,28.871Zm-.4-17.621a1.954,1.954,0,0,0-1.2.675,2.444,2.444,0,0,0-.75,1.725V28.875a3.221,3.221,0,0,1,1.95-.975Zm.975-.075V27.825H31.2V11.175ZM29.55,32.85H17.4a.525.525,0,1,1,0-1.05H29.55a.525.525,0,0,1,0,1.05Zm0-1.875H17.4a.525.525,0,1,1,0-1.05H29.55a.525.525,0,0,1,0,1.05Z" transform="translate(1191 385)"/>
</svg>
