<svg xmlns="http://www.w3.org/2000/svg" viewBox="44 700 64 64">
  <defs>
    <style>
      .cls-1 {
        fill: #01579b;
      }
    </style>
  </defs>
  <path id="Subtraction_12" data-name="Subtraction 12" class="cls-1" d="M32,64A32.008,32.008,0,0,1,19.544,2.515,32.008,32.008,0,0,1,44.456,61.485,31.8,31.8,0,0,1,32,64ZM26.454,35.626h0l-9.6,9.6H47.466L37.653,35.52,32,40.107l-5.546-4.48ZM15.466,26.773v17.6l9.707-9.707Zm33.067,0-9.6,7.787,9.6,9.6Zm-27.733-8V29.12L32,38.08,43.2,29.12V18.774Zm18.666,9.813H24.64v-1.6H39.466v1.6Zm0-3.947H24.64v-1.6H39.466v1.6Z" transform="translate(44 700)"/>
</svg>
