<svg xmlns="http://www.w3.org/2000/svg" viewBox="1191.9 325 45 45">
  <defs>
    <style>
      .cls-1 {
        fill: #ff1744;
      }
    </style>
  </defs>
  <path id="Subtraction_4" data-name="Subtraction 4" class="cls-1" d="M22.5,45A22.506,22.506,0,0,1,13.742,1.768,22.506,22.506,0,0,1,31.258,43.232,22.358,22.358,0,0,1,22.5,45ZM11.624,21.675,13.5,31.5a2.051,2.051,0,0,0,1.95,1.426H29.625a1.894,1.894,0,0,0,1.95-1.426l1.95-9.824ZM10.349,18a.675.675,0,0,0-.675.675V20.1a.676.676,0,0,0,.675.676H34.874a.676.676,0,0,0,.675-.676V18.675A.8.8,0,0,0,34.8,18H30.6l-5.625-5.625a.951.951,0,0,0-.666-.281.771.771,0,0,0-.609.281.941.941,0,0,0-.28.714.759.759,0,0,0,.28.561l4.35,4.275H17.1l4.35-4.275a.941.941,0,0,0,.28-.713.76.76,0,0,0-.28-.562.951.951,0,0,0-.666-.281.771.771,0,0,0-.609.281L14.55,18ZM26.475,30.675A.676.676,0,0,1,25.8,30V24.375a.675.675,0,0,1,1.35,0V30A.676.676,0,0,1,26.475,30.675Zm-3.975,0A.676.676,0,0,1,21.824,30V24.375a.675.675,0,0,1,1.35,0V30A.676.676,0,0,1,22.5,30.675Zm-3.975,0A.676.676,0,0,1,17.85,30V24.375a.675.675,0,1,1,1.349,0V30A.676.676,0,0,1,18.525,30.675Z" transform="translate(1191.9 325)"/>
</svg>
