<svg xmlns="http://www.w3.org/2000/svg" viewBox="1192 621 45 45">
  <defs>
    <style>
      .cls-1 {
        fill: #f5f5f5;
      }
    </style>
  </defs>
  <path id="Subtraction_6" data-name="Subtraction 6" class="cls-1" d="M22.5,45A22.506,22.506,0,0,1,13.742,1.768,22.506,22.506,0,0,1,31.258,43.232,22.358,22.358,0,0,1,22.5,45ZM14.85,30.375h0a6.355,6.355,0,0,0,1.649.674V33.3a7.35,7.35,0,0,0,1.8.15,13.207,13.207,0,0,0,1.8-.15v-2.25a6.378,6.378,0,0,0,1.65-.675l1.575,1.575a10.9,10.9,0,0,0,2.625-2.625L24.374,27.75a6.355,6.355,0,0,0,.676-1.65H27.3a7.312,7.312,0,0,0,.151-1.8,13.521,13.521,0,0,0-.151-1.8H25.05a6.355,6.355,0,0,0-.676-1.65l1.575-1.575a10.939,10.939,0,0,0-2.625-2.625L21.75,18.225a6.379,6.379,0,0,0-1.65-.676V15.3a7.317,7.317,0,0,0-1.8-.151,13.521,13.521,0,0,0-1.8.151v2.249a6.355,6.355,0,0,0-1.65.676l-1.575-1.575a9.669,9.669,0,0,0-2.625,2.625l1.575,1.575a6.354,6.354,0,0,0-.675,1.65H9.3a7.346,7.346,0,0,0-.15,1.8,13.176,13.176,0,0,0,.15,1.8h2.25a6.354,6.354,0,0,0,.675,1.65L10.65,29.324a10.862,10.862,0,0,0,2.625,2.625l1.574-1.574ZM28.8,20.4h0c.071.053.138.106.2.158a2.658,2.658,0,0,0,.7.442l-.224,1.275a4.284,4.284,0,0,0,1.05.3,4.919,4.919,0,0,0,1.05.075l.225-1.275h.007a2.62,2.62,0,0,0,1.043-.224l.75,1.05.182-.088a2.6,2.6,0,0,0,.718-.437c.15-.113.284-.227.413-.337s.263-.225.413-.337l-.75-1.051c.053-.07.106-.137.157-.2a2.665,2.665,0,0,0,.443-.7l1.275.225a4.284,4.284,0,0,0,.3-1.05,4.924,4.924,0,0,0,.075-1.051L35.55,16.95a2.637,2.637,0,0,0-.225-1.051l1.05-.75c-.029-.059-.059-.121-.089-.184a2.611,2.611,0,0,0-.436-.716,8.169,8.169,0,0,0-.675-.825l-1.051.75c-.07-.053-.137-.106-.2-.157a2.665,2.665,0,0,0-.7-.443l.225-1.275A4.284,4.284,0,0,0,32.4,12a5.291,5.291,0,0,0-1.051-.075L31.125,13.2h-.007a2.622,2.622,0,0,0-1.044.224l-.75-1.05a4.739,4.739,0,0,0-1.724,1.2l.75,1.05c-.053.071-.106.138-.158.2a2.66,2.66,0,0,0-.442.7L26.475,15.3a4.283,4.283,0,0,0-.3,1.05A5.285,5.285,0,0,0,26.1,17.4l1.275.225a2.635,2.635,0,0,0,.225,1.05l-1.05.75c.029.058.058.119.088.182a2.6,2.6,0,0,0,.437.718,7.915,7.915,0,0,0,.675.825L28.8,20.4ZM18.225,30.074a.734.734,0,0,1-.75-.675.692.692,0,0,1,.75-.675.626.626,0,0,1,.675.675.488.488,0,0,1-.11.415A.744.744,0,0,1,18.225,30.074Zm0-2.624a3.17,3.17,0,1,1,2.222-.928A3.126,3.126,0,0,1,18.225,27.45Zm5.024-2.4a.714.714,0,1,1,0-1.426.692.692,0,0,1,.676.75.519.519,0,0,1-.1.439A.726.726,0,0,1,23.249,25.05Zm-10.05,0a.714.714,0,1,1,0-1.426.692.692,0,0,1,.675.75A.676.676,0,0,1,13.2,25.05Zm5.025-5.025a.734.734,0,0,1-.75-.675.8.8,0,0,1,.75-.75.692.692,0,0,1,.675.75A.675.675,0,0,1,18.225,20.025Zm13.355-.932a1.7,1.7,0,0,1-.381-.044,1.8,1.8,0,0,1,.3-3.568,1.7,1.7,0,0,1,.38.043,1.8,1.8,0,0,1,1.425,2.1A1.748,1.748,0,0,1,31.58,19.093Z" transform="translate(1192 621)"/>
</svg>
